HIERARCHY
ROOT Hips
{
    OFFSET 0.000000 0.000000 0.000000
    CHANNELS 6 Xposition Yposition Zposition Zrotation Yrotation Xrotation
    JOINT LeftUpLeg
    {
        OFFSET 1.623290 -1.808000 0.673180
        CHANNELS 3 Zrotation Yrotation Xrotation
        JOINT LeftLeg
        {
            OFFSET 2.571390 -7.064839 0.000000
            CHANNELS 3 Zrotation Yrotation Xrotation
            JOINT LeftFoot
            {
                OFFSET 2.520170 -6.924130 0.000000
                CHANNELS 3 Zrotation Yrotation Xrotation
                JOINT LeftToeBase
                {
                    OFFSET 0.232950 -0.640010 2.102140
                    CHANNELS 3 Zrotation Yrotation Xrotation
                    End Site
                    {
                        OFFSET 0.000000 0.000000 0.000000
                    }
                }
            }
        }
    }
    JOINT RightUpLeg
    {
        OFFSET -1.480610 -1.808000 0.673180
        CHANNELS 3 Zrotation Yrotation Xrotation
        JOINT RightLeg
        {
            OFFSET -2.632580 -7.232960 0.000000
            CHANNELS 3 Zrotation Yrotation Xrotation
            JOINT RightFoot
            {
                OFFSET -2.547790 -7.000000 0.000000
                CHANNELS 3 Zrotation Yrotation Xrotation
                JOINT RightToeBase
                {
                    OFFSET -0.230670 -0.633760 2.121610
                    CHANNELS 3 Zrotation Yrotation Xrotation
                    End Site
                    {
                        OFFSET 0.000000 0.000000 0.000000
                    }
                }
            }
        }
    }
    JOINT Spine
    {
        OFFSET -0.021080 2.075730 -0.169810
        CHANNELS 3 Zrotation Yrotation Xrotation
        JOINT Spine1
        {
            OFFSET 0.050700 2.084390 -0.031410
            CHANNELS 3 Zrotation Yrotation Xrotation
            JOINT Neck1
            {
                OFFSET -0.107310 1.604080 0.313700
                CHANNELS 3 Zrotation Yrotation Xrotation
                JOINT Head
                {
                    OFFSET 0.084110 1.656790 -0.308220
                    CHANNELS 3 Zrotation Yrotation Xrotation
                    End Site
                    {
                        OFFSET 0.000000 0.000000 0.000000
                    }
                }
            }
            JOINT LeftShoulder
            {
                OFFSET 0.000000 0.000000 0.000000
                CHANNELS 3 Zrotation Yrotation Xrotation
                JOINT LeftArm
                {
                    OFFSET 3.523150 0.732190 -0.546940
                    CHANNELS 3 Zrotation Yrotation Xrotation
                    JOINT LeftForeArm
                    {
                        OFFSET 5.324620 -0.000000 -0.000000
                        CHANNELS 3 Zrotation Yrotation Xrotation
                        JOINT LeftHand
                        {
                            OFFSET 3.484020 -0.000000 -0.000000
                            CHANNELS 3 Zrotation Yrotation Xrotation
                            End Site
                            {
                                OFFSET 0.000000 0.000000 0.000000
                            }
                        }
                    }
                }
            }
            JOINT RightShoulder
            {
                OFFSET 0.000000 0.000000 0.000000
                CHANNELS 3 Zrotation Yrotation Xrotation
                JOINT RightArm
                {
                    OFFSET -3.417660 0.935920 -0.100190
                    CHANNELS 3 Zrotation Yrotation Xrotation
                    JOINT RightForeArm
                    {
                        OFFSET -5.335890 -0.000000 -0.000000
                        CHANNELS 3 Zrotation Yrotation Xrotation
                        JOINT RightHand
                        {
                            OFFSET -3.641340 -0.000000 -0.000000
                            CHANNELS 3 Zrotation Yrotation Xrotation
                            End Site
                            {
                                OFFSET 0.000000 0.000000 0.000000
                            }
                        }
                    }
                }
            }
        }
    }
}
MOTION
Frames: 16
Frame Time: 0.016667
-2.382900 16.694376 1.001000 0.901458 -1.558340 23.854765 -2.401754 -14.700379 -36.789078 -6.454508 16.268465 36.840218 3.322672 9.845285 -17.952599 -0.190579 -1.756774 0.393890 2.177086 16.509844 -41.233593 4.240207 -17.806265 42.153244 -4.212002 -19.990244 -23.848145 -0.368722 0.299097 -1.704275 1.705387 -0.802726 6.880691 -0.764076 -0.926067 -3.021785 4.306962 -4.297449 16.448322 -4.019445 -2.139102 -5.383065 12.891947 -5.931288 -2.323354 -25.570185 -24.973557 1.088112 38.259830 -41.994938 -33.798294 7.718250 -1.185296 -12.342999 -11.275364 4.796738 1.259441 32.702312 2.962435 2.731150 -54.840126 64.658836 -41.215923 -8.948702 1.555332 -5.953539 
-2.392200 16.695076 0.982400 0.731719 -1.462159 23.956474 -2.186923 -14.712997 -37.010605 -6.289575 16.241524 36.919201 3.324758 9.859402 -17.955044 -0.178598 -1.754075 0.399663 2.099802 16.519787 -41.332672 4.769534 -17.917437 41.890377 -4.212977 -20.002808 -23.850163 -0.376506 0.246901 -1.732665 1.649340 -0.751421 6.819448 -0.874938 -0.901820 -3.040458 4.419654 -4.390630 16.292713 -4.013699 -2.131088 -5.502221 12.817912 -5.796256 -2.196809 -26.594181 -24.301725 1.957810 38.106110 -41.769375 -33.694305 7.744779 -1.219168 -12.244007 -11.484169 4.742208 1.181129 32.247509 3.169029 2.008125 -56.993073 64.334618 -43.074322 -9.154133 1.427901 -5.650609 
-2.403200 16.702677 0.954500 0.556121 -1.319603 24.048723 -1.967195 -14.727471 -37.242889 -6.124514 16.182899 36.930431 3.335329 9.947882 -17.800909 -0.171221 -1.734507 0.414997 2.002210 16.497494 -41.377117 5.441186 -18.004734 41.448238 -4.224657 -20.071247 -23.780725 -0.369874 0.171796 -1.770962 1.599760 -0.691327 6.769103 -0.978631 -0.888912 -3.062272 4.530210 -4.474477 16.141752 -4.020370 -2.142771 -5.622467 12.753933 -5.657635 -2.070054 -27.567774 -23.631424 2.761160 37.886162 -41.737202 -33.538464 7.632813 -1.214038 -12.384196 -11.670810 4.704599 1.102022 31.808943 3.427744 1.309746 -59.300297 64.097160 -44.994724 -9.326967 1.295014 -5.140052 
-2.410900 16.703276 0.932400 0.396697 -1.144589 24.147692 -1.727783 -14.744700 -37.501827 -6.043462 16.179291 36.990292 3.349176 10.043124 -17.792889 -0.158289 -1.724253 0.419974 1.910304 16.499056 -41.471706 5.988437 -18.110849 41.169590 -4.235684 -20.192329 -23.780622 -0.373047 0.117689 -1.802236 1.548970 -0.651255 6.715529 -1.088209 -0.873000 -3.082983 4.632100 -4.566390 15.994712 -4.032051 -2.112248 -5.727466 12.682626 -5.543990 -1.952254 -28.530142 -23.066095 3.589504 37.723759 -41.483147 -33.399513 7.671797 -1.245872 -12.262020 -11.852187 4.685386 1.011346 31.395071 3.839538 0.548663 -61.583881 63.744331 -47.024872 -9.506480 1.171602 -4.742684 
-2.422100 16.708376 0.906300 0.235758 -0.946731 24.232309 -1.491434 -14.760333 -37.756615 -5.930199 16.152216 37.026550 3.361875 10.142036 -17.653416 -0.148402 -1.701775 0.432263 1.789375 16.465458 -41.513344 6.706103 -18.216709 40.742008 -4.256594 -20.400854 -23.757235 -0.363048 0.040546 -1.847617 1.504222 -0.603535 6.673341 -1.193546 -0.864649 -3.107245 4.729941 -4.652031 15.855595 -4.062833 -2.085438 -5.835548 12.601200 -5.429368 -1.831318 -29.480337 -22.556044 4.391521 37.481026 -41.381325 -33.210880 7.576786 -1.242614 -12.362993 -12.006401 4.674688 0.921136 31.017555 4.273143 -0.223407 -63.841991 63.511547 -48.929592 -9.601924 1.025905 -4.332386 
-2.426400 16.709276 0.884200 0.095066 -0.772239 24.323715 -1.249770 -14.779845 -38.028194 -5.914657 16.177500 37.094322 3.380727 10.273189 -17.606087 -0.134595 -1.688380 0.432723 1.679500 16.455799 -41.600216 7.249248 -18.309130 40.450478 -4.274764 -20.589014 -23.745604 -0.363322 -0.025734 -1.876260 1.458079 -0.558117 6.622835 -1.307378 -0.853642 -3.129299 4.807632 -4.715118 15.721839 -4.102472 -2.015604 -5.933158 12.513403 -5.324525 -1.717657 -30.416759 -22.044559 5.224308 37.294094 -41.041786 -33.030594 7.627396 -1.274581 -12.246599 -12.155589 4.686288 0.821267 30.621559 4.898856 -1.040606 -65.841324 63.149101 -50.675938 -9.749779 0.873629 -3.897762 
-2.434900 16.712677 0.855100 -0.049331 -0.327997 24.402706 -0.995866 -14.812454 -38.345806 -5.895716 16.167809 37.089249 3.404089 10.437184 -17.510036 -0.123403 -1.668017 0.436605 1.602793 16.423475 -41.601032 7.783050 -18.366301 40.100014 -4.286671 -20.703518 -23.728838 -0.351434 -0.082529 -1.923979 1.415169 -0.499643 6.581830 -1.421990 -0.843217 -3.154763 4.882629 -4.753424 15.598947 -4.144058 -1.967419 -6.037019 12.409990 -5.216714 -1.597331 -31.354349 -21.510920 6.028049 36.914650 -40.788113 -32.729767 7.558758 -1.270418 -12.344393 -12.286898 4.708252 0.724045 30.208618 5.540163 -1.858778 -67.864235 62.942135 -52.348843 -9.814979 0.705440 -3.446179 
-2.442300 16.714376 0.831800 -0.180616 0.009726 24.492617 -0.742170 -14.837763 -38.648720 -5.916555 16.185804 37.110714 3.430651 10.619076 -17.438192 -0.109011 -1.654830 0.429806 1.535642 16.414402 -41.646931 8.246835 -18.423512 39.815735 -4.303539 -20.883287 -23.724573 -0.344713 -0.130265 -1.966392 1.371597 -0.443722 6.536937 -1.543693 -0.826548 -3.178230 4.944015 -4.787547 15.474016 -4.186395 -1.888967 -6.134009 12.299517 -5.114728 -1.481807 -32.308632 -20.972130 6.919173 36.666786 -40.331318 -32.484577 7.607915 -1.304287 -12.311998 -12.416238 4.745674 0.623850 29.830677 6.269822 -2.723434 -69.755508 62.596855 -53.967453 -9.937448 0.548501 -3.052509 
-2.448900 16.717577 0.801400 -0.318782 0.287701 24.566572 -0.505910 -14.863460 -38.938881 -5.887883 16.183327 37.129440 3.451860 10.765706 -17.327316 -0.100030 -1.639658 0.432169 1.449503 16.398722 -41.696468 8.755865 -18.472111 39.480072 -4.321102 -21.020487 -23.668280 -0.328831 -0.194529 -2.016435 1.329918 -0.378336 6.501606 -1.667006 -0.809445 -3.202707 5.011636 -4.814735 15.355371 -4.230392 -1.835977 -6.233574 12.169645 -5.014007 -1.361544 -33.262310 -20.380297 7.785802 36.106754 -39.916565 -31.996899 7.562801 -1.276032 -12.512733 -12.528084 4.786855 0.527882 29.404713 7.004735 -3.507876 -71.200394 62.574764 -55.174877 -9.955769 0.364589 -2.649276 
-2.459600 16.715076 0.775400 -0.440782 0.673272 24.650906 -0.245090 -14.891711 -39.262211 -5.921566 16.208248 37.155067 3.481916 10.963899 -17.340744 -0.089897 -1.628270 0.419332 1.392612 16.407516 -41.774441 9.101860 -18.533949 39.312462 -4.318879 -21.010729 -23.683294 -0.320664 -0.230913 -2.057031 1.286494 -0.303271 6.460894 -1.782570 -0.788516 -3.233905 5.064431 -4.826411 15.233655 -4.273458 -1.758282 -6.332551 12.021029 -4.914656 -1.241688 -34.238400 -19.751793 8.730815 35.707954 -39.361012 -31.627165 7.710182 -1.180952 -12.845838 -12.643940 4.853007 0.418760 29.017597 7.802963 -4.351068 -72.452301 62.444664 -56.241188 -10.059305 0.222116 -2.250166 
-2.473100 16.715977 0.744700 -0.594775 0.869093 24.680698 -0.033323 -14.913172 -39.523640 -5.764765 16.202747 37.275333 3.503789 11.111658 -17.227236 -0.086196 -1.618284 0.412903 1.340962 16.399130 -41.806732 9.603095 -18.592720 39.011852 -4.321216 -20.989309 -23.634153 -0.304311 -0.275087 -2.111347 1.244675 -0.232771 6.435318 -1.888633 -0.767704 -3.269888 5.123343 -4.848524 15.119358 -4.317739 -1.708723 -6.430083 11.867110 -4.818330 -1.116400 -35.167881 -19.119307 9.756958 34.937828 -38.747463 -30.973078 7.701036 -1.109753 -13.177256 -12.750093 4.928957 0.309505 28.538401 8.681448 -5.119392 -73.674744 62.392311 -57.240200 -10.077258 0.035393 -1.867949 
-2.483000 16.718176 0.720000 -0.731612 1.193541 24.730919 0.195588 -14.927848 -39.787674 -5.752872 16.207005 37.294632 3.536681 11.328808 -17.138130 -0.083451 -1.605132 0.396856 1.375593 16.413424 -41.805531 9.811090 -18.576571 38.808746 -4.308392 -20.782244 -23.559956 -0.294559 -0.292279 -2.160063 1.202876 -0.158058 6.400386 -1.998576 -0.734130 -3.304827 5.174796 -4.857223 14.997828 -4.360301 -1.639374 -6.516901 11.692155 -4.731144 -0.991717 -36.121323 -18.469236 10.887162 34.310711 -38.003277 -30.405622 7.854736 -1.011680 -13.511091 -12.866084 5.025396 0.187871 28.059460 9.582119 -5.939688 -74.983345 62.252884 -58.350410 -10.142661 -0.109663 -1.393922 
-2.491600 16.720276 0.702000 -0.888137 1.358722 24.763474 0.399175 -14.933267 -40.005569 -5.633389 16.217405 37.418545 3.555660 11.453484 -17.014395 -0.085790 -1.598595 0.388889 1.412668 16.420444 -41.784718 10.092875 -18.570261 38.566273 -4.295269 -20.573042 -23.483768 -0.278269 -0.331103 -2.215944 1.162260 -0.089090 6.384245 -2.105748 -0.699251 -3.338225 5.229471 -4.875803 14.889266 -4.403845 -1.599521 -6.602067 11.513644 -4.648551 -0.864380 -37.241482 -17.880287 12.104826 33.273163 -37.300564 -29.502108 7.854911 -0.940217 -13.898925 -12.975295 5.124423 0.065436 27.525276 10.483937 -6.672791 -76.231697 62.189167 -59.388283 -10.139095 -0.261493 -0.976746 
-2.507400 16.721376 0.683400 -1.028340 1.728653 24.810068 0.629443 -14.939860 -40.255470 -5.624202 16.218616 37.429001 3.603971 11.765574 -16.965557 -0.090199 -1.585938 0.368725 1.495689 16.442492 -41.753105 10.217876 -18.543545 38.412697 -4.263194 -20.187120 -23.432119 -0.269961 -0.337911 -2.269603 1.120715 -0.025175 6.357549 -2.217203 -0.652964 -3.371325 5.278780 -4.877645 14.770626 -4.446106 -1.539951 -6.680940 11.309628 -4.584665 -0.735555 -38.430431 -17.274714 13.485175 32.347755 -36.548969 -28.629175 7.999581 -0.853281 -14.210459 -13.098117 5.248280 -0.076689 26.961178 11.485415 -7.508248 -77.506996 62.065411 -60.483162 -10.213295 -0.388540 -0.488692 
-2.525200 16.720476 0.664300 -1.180464 1.968695 24.841438 0.844548 -14.941493 -40.479702 -5.519903 16.216417 37.513058 3.640860 12.002447 -16.929102 -0.098831 -1.576511 0.362389 1.542817 16.461184 -41.749710 10.464245 -18.557323 38.241100 -4.233726 -19.839869 -23.390202 -0.254252 -0.369469 -2.325529 1.083235 0.037983 6.349955 -2.324512 -0.605349 -3.402445 5.331627 -4.895294 14.665429 -4.490026 -1.506249 -6.760486 11.109838 -4.516263 -0.614570 -39.576622 -16.692888 14.751447 31.147511 -35.694141 -27.572454 7.998838 -0.808147 -14.564082 -13.214643 5.376565 -0.215395 26.527414 12.292384 -8.380193 -78.758301 62.028091 -61.544197 -10.218635 -0.511188 -0.040868 
-2.543000 16.719677 0.652300 -1.323223 2.179904 24.887360 1.058811 -14.932872 -40.679192 -5.472398 16.222942 37.567875 3.688937 12.311147 -16.922880 -0.107487 -1.562539 0.343567 1.609853 16.487858 -41.745075 10.640693 -18.557791 38.100796 -4.199090 -19.444647 -23.353830 -0.246794 -0.373445 -2.379687 1.047616 0.087635 6.333590 -2.434424 -0.552176 -3.433322 5.381855 -4.893725 14.555653 -4.532670 -1.450771 -6.828523 10.888632 -4.476493 -0.488158 -40.736961 -16.100193 16.103203 30.072954 -34.739990 -26.550510 8.097584 -0.774253 -14.789398 -13.339906 5.517338 -0.371568 25.982651 13.239406 -9.350896 -79.937347 61.920418 -62.594185 -10.321027 -0.595601 0.550569 
